<svg width="111" height="123" viewBox="0 0 111 123" fill="none" xmlns="http://www.w3.org/2000/svg">
<circle cx="5.5" cy="5.5" r="5.5" fill="#C4C4C4"/>
<circle cx="30.5" cy="5.5" r="5.5" fill="#C4C4C4"/>
<circle cx="55.5" cy="5.5" r="5.5" fill="#C4C4C4"/>
<circle cx="80.5" cy="5.5" r="5.5" fill="#C4C4C4"/>
<circle cx="105.5" cy="5.5" r="5.5" fill="#C4C4C4"/>
<circle cx="5.5" cy="33.5" r="5.5" fill="#C4C4C4"/>
<circle cx="30.5" cy="33.5" r="5.5" fill="#C4C4C4"/>
<circle cx="55.5" cy="33.5" r="5.5" fill="#C4C4C4"/>
<circle cx="80.5" cy="33.5" r="5.5" fill="#C4C4C4"/>
<circle cx="105.5" cy="33.5" r="5.5" fill="#C4C4C4"/>
<circle cx="5.5" cy="61.5" r="5.5" fill="#C4C4C4"/>
<circle cx="30.5" cy="61.5" r="5.5" fill="#C4C4C4"/>
<circle cx="55.5" cy="61.5" r="5.5" fill="#C4C4C4"/>
<circle cx="80.5" cy="61.5" r="5.5" fill="#C4C4C4"/>
<circle cx="105.5" cy="61.5" r="5.5" fill="#C4C4C4"/>
<circle cx="5.5" cy="89.5" r="5.5" fill="#C4C4C4"/>
<circle cx="30.5" cy="89.5" r="5.5" fill="#C4C4C4"/>
<circle cx="55.5" cy="89.5" r="5.5" fill="#C4C4C4"/>
<circle cx="80.5" cy="89.5" r="5.5" fill="#C4C4C4"/>
<circle cx="105.5" cy="89.5" r="5.5" fill="#C4C4C4"/>
<circle cx="5.5" cy="117.5" r="5.5" fill="#C4C4C4"/>
<circle cx="30.5" cy="117.5" r="5.5" fill="#C4C4C4"/>
<circle cx="55.5" cy="117.5" r="5.5" fill="#C4C4C4"/>
<circle cx="80.5" cy="117.5" r="5.5" fill="#C4C4C4"/>
<circle cx="105.5" cy="117.5" r="5.5" fill="#C4C4C4"/>
</svg>
