<svg width="68" height="68" viewBox="0 0 68 68" fill="none" xmlns="http://www.w3.org/2000/svg">
<path d="M34 68C15.2218 68 0 52.7782 0 34C0 15.2218 15.2218 0 34 0C52.7782 0 68 15.2218 68 34C68 52.7782 52.7782 68 34 68ZM34 61.2C41.2139 61.2 48.1323 58.3343 53.2333 53.2333C58.3343 48.1323 61.2 41.2139 61.2 34C61.2 26.7861 58.3343 19.8677 53.2333 14.7667C48.1323 9.66571 41.2139 6.8 34 6.8C26.7861 6.8 19.8677 9.66571 14.7667 14.7667C9.66571 19.8677 6.8 26.7861 6.8 34C6.8 41.2139 9.66571 48.1323 14.7667 53.2333C19.8677 58.3343 26.7861 61.2 34 61.2ZM29.3148 21.811L45.9034 32.8678C46.09 32.9919 46.2429 33.1603 46.3487 33.3578C46.4546 33.5553 46.5099 33.7759 46.5099 34C46.5099 34.2241 46.4546 34.4447 46.3487 34.6422C46.2429 34.8397 46.09 35.0081 45.9034 35.1322L29.3114 46.189C29.1068 46.3246 28.8693 46.4023 28.6242 46.4139C28.379 46.4255 28.1352 46.3705 27.9188 46.2548C27.7023 46.1391 27.5212 45.9669 27.3947 45.7566C27.2681 45.5463 27.2009 45.3057 27.2 45.0602V22.9398C27.2005 22.6938 27.2676 22.4526 27.3943 22.2417C27.5211 22.0309 27.7026 21.8584 27.9196 21.7425C28.1366 21.6267 28.381 21.5719 28.6267 21.584C28.8724 21.596 29.1102 21.6745 29.3148 21.811Z" fill="white"/>
</svg>
