<svg width="34" height="34" viewBox="0 0 34 34" fill="none" xmlns="http://www.w3.org/2000/svg">
<path d="M18.5455 0L18.547 4.73218C21.2704 5.0765 23.8019 6.31694 25.7429 8.25816C27.6838 10.1994 28.9239 12.7311 29.2678 15.4545H34V18.5455L29.2678 18.547C28.9236 21.2702 27.6834 23.8015 25.7424 25.7424C23.8015 27.6834 21.2702 28.9236 18.547 29.2678L18.5455 34H15.4545V29.2678C12.7311 28.9239 10.1994 27.6838 8.25816 25.7429C6.31694 23.8019 5.0765 21.2704 4.73218 18.547L0 18.5455V15.4545H4.73218C5.07618 12.7308 6.31648 10.199 8.25773 8.25773C10.199 6.31648 12.7308 5.07618 15.4545 4.73218V0H18.5455ZM17 7.72727C14.5407 7.72727 12.1822 8.70422 10.4432 10.4432C8.70422 12.1822 7.72727 14.5407 7.72727 17C7.72727 19.4593 8.70422 21.8178 10.4432 23.5568C12.1822 25.2958 14.5407 26.2727 17 26.2727C19.4593 26.2727 21.8178 25.2958 23.5568 23.5568C25.2958 21.8178 26.2727 19.4593 26.2727 17C26.2727 14.5407 25.2958 12.1822 23.5568 10.4432C21.8178 8.70422 19.4593 7.72727 17 7.72727ZM17 13.9091C17.8198 13.9091 18.6059 14.2347 19.1856 14.8144C19.7653 15.3941 20.0909 16.1802 20.0909 17C20.0909 17.8198 19.7653 18.6059 19.1856 19.1856C18.6059 19.7653 17.8198 20.0909 17 20.0909C16.1802 20.0909 15.3941 19.7653 14.8144 19.1856C14.2347 18.6059 13.9091 17.8198 13.9091 17C13.9091 16.1802 14.2347 15.3941 14.8144 14.8144C15.3941 14.2347 16.1802 13.9091 17 13.9091Z" fill="white"/>
</svg>
