<svg width="25" height="25" viewBox="0 0 25 25" fill="none" xmlns="http://www.w3.org/2000/svg">
<path d="M0 25C0 22.4741 1.0034 20.0517 2.78946 18.2656C4.57552 16.4796 6.99794 15.4762 9.52381 15.4762C12.0497 15.4762 14.4721 16.4796 16.2582 18.2656C18.0442 20.0517 19.0476 22.4741 19.0476 25H16.6667C16.6667 23.1056 15.9141 21.2888 14.5746 19.9492C13.235 18.6097 11.4182 17.8571 9.52381 17.8571C7.62941 17.8571 5.81259 18.6097 4.47305 19.9492C3.1335 21.2888 2.38095 23.1056 2.38095 25H0ZM9.52381 14.2857C5.57738 14.2857 2.38095 11.0893 2.38095 7.14286C2.38095 3.19643 5.57738 0 9.52381 0C13.4702 0 16.6667 3.19643 16.6667 7.14286C16.6667 11.0893 13.4702 14.2857 9.52381 14.2857ZM9.52381 11.9048C12.1548 11.9048 14.2857 9.77381 14.2857 7.14286C14.2857 4.5119 12.1548 2.38095 9.52381 2.38095C6.89286 2.38095 4.7619 4.5119 4.7619 7.14286C4.7619 9.77381 6.89286 11.9048 9.52381 11.9048ZM19.3857 16.3131C21.0587 17.0666 22.4785 18.2872 23.4745 19.8282C24.4705 21.3693 25.0002 23.1651 25 25H22.619C22.6193 23.6238 22.2221 22.2768 21.4751 21.1209C20.7281 19.9651 19.6632 19.0496 18.4083 18.4845L19.3857 16.3131ZM18.5667 2.87262C19.7661 3.36702 20.7916 4.20659 21.5131 5.2848C22.2346 6.363 22.6195 7.63124 22.619 8.92857C22.6195 10.5623 22.0092 12.1372 20.9078 13.3438C19.8064 14.5505 18.2937 15.3017 16.6667 15.45V13.0536C17.5487 12.9272 18.3671 12.5215 19.0016 11.8958C19.636 11.2701 20.0532 10.4575 20.1919 9.5773C20.3305 8.69708 20.1833 7.79559 19.7719 7.00518C19.3605 6.21477 18.7065 5.57708 17.906 5.18571L18.5667 2.87262Z" fill="white"/>
</svg>
